<svg version="1.1" xmlns="http://www.w3.org/2000/svg" xmlns:xlink="http://www.w3.org/1999/xlink" width="500px" height="500px" viewBox="0,0,256,256"><g fill="none" fill-rule="nonzero" stroke="none" stroke-width="1" stroke-linecap="butt" stroke-linejoin="miter" stroke-miterlimit="10" stroke-dasharray="" stroke-dashoffset="0" font-family="none" font-weight="none" font-size="none" text-anchor="none" style="mix-blend-mode: normal"><g transform="scale(2.56,2.56)"><path d="M78,13c-0.55228,0 -1,0.44772 -1,1c0,0.55228 0.44772,1 1,1c0.55228,0 1,-0.44772 1,-1c0,-0.55228 -0.44772,-1 -1,-1z" fill="#0ea5e9"></path><path d="M50,12c-20.98682,0 -38,17.01318 -38,38c0,20.98682 17.01318,38 38,38c20.98682,0 38,-17.01318 38,-38c0,-20.98682 -17.01318,-38 -38,-38z" fill="#000000"></path><path d="M84,12c-2.20914,0 -4,1.79086 -4,4c0,2.20914 1.79086,4 4,4c2.20914,0 4,-1.79086 4,-4c0,-2.20914 -1.79086,-4 -4,-4z" fill="#0ea5e9"></path><path d="M14,24c-1.10457,0 -2,0.89543 -2,2c0,1.10457 0.89543,2 2,2c1.10457,0 2,-0.89543 2,-2c0,-1.10457 -0.89543,-2 -2,-2z" fill="#0ea5e9"></path><path d="M78,75c-1.10457,0 -2,0.89543 -2,2c0,1.10457 0.89543,2 2,2c1.10457,0 2,-0.89543 2,-2c0,-1.10457 -0.89543,-2 -2,-2zM17,74c-2.20914,0 -4,1.79086 -4,4c0,2.20914 1.79086,4 4,4c2.20914,0 4,-1.79086 4,-4c0,-2.20914 -1.79086,-4 -4,-4z" fill="#0ea5e9"></path><path d="M24,81c-1.10457,0 -2,0.89543 -2,2c0,1.10457 0.89543,2 2,2c1.10457,0 2,-0.89543 2,-2c0,-1.10457 -0.89543,-2 -2,-2z" fill="#0ea5e9"></path><path d="M66.483,76.034c-1.37132,0 -2.483,1.11168 -2.483,2.483c0,1.37132 1.11168,2.483 2.483,2.483c1.37132,0 2.483,-1.11168 2.483,-2.483c0,-1.37132 -1.11168,-2.483 -2.483,-2.483zM16,47c-0.55228,0 -1,0.44772 -1,1c0,0.55228 0.44772,1 1,1c0.55228,0 1,-0.44772 1,-1c0,-0.55228 -0.44772,-1 -1,-1z" fill="#ffffff"></path><path d="M86,30c-0.55228,0 -1,0.44772 -1,1c0,0.55228 0.44772,1 1,1c0.55228,0 1,-0.44772 1,-1c0,-0.55228 -0.44772,-1 -1,-1z" fill="#0ea5e9"></path><path d="M80,64c-1.10457,0 -2,0.89543 -2,2c0,1.10457 0.89543,2 2,2c1.10457,0 2,-0.89543 2,-2c0,-1.10457 -0.89543,-2 -2,-2z" fill="#ffffff"></path><g><path d="M58.515,72.268c-1.497,-0.594 -11.25,-4.658 -19.438,-12.845c-8.187,-8.188 -12.251,-17.94 -12.845,-19.438c0.591,-2.388 2.23,-8.167 3.542,-9.478l1.764,-1.764c0.673,-0.673 1.568,-1.044 2.521,-1.044c0.952,0 1.848,0.371 2.521,1.044l5.57,5.571c0.593,0.592 0.919,1.379 0.919,2.216c0,0.836 -0.326,1.623 -0.919,2.215l-6.681,6.682l0.202,0.442c0.106,0.231 2.654,5.731 6.94,10.019c4.287,4.286 9.786,6.834 10.018,6.94l0.442,0.202l6.683,-6.682c0.592,-0.592 1.379,-0.918 2.215,-0.918c0.837,0 1.624,0.326 2.216,0.918l5.57,5.571c0.674,0.674 1.045,1.568 1.045,2.521c0,0.953 -0.371,1.848 -1.045,2.521l-1.763,1.763c-1.31,1.314 -7.09,2.953 -9.477,3.544z" fill="#ffffff"></path><path d="M34.059,28.4c0.765,0 1.485,0.298 2.026,0.84l5.571,5.571c0.949,0.949 0.949,2.492 0,3.441l-6.337,6.337l-0.688,0.688l0.406,0.885c0.108,0.237 2.707,5.846 7.082,10.221c4.375,4.375 9.985,6.973 10.222,7.082l0.885,0.406l0.688,-0.688l6.337,-6.337c0.46,-0.46 1.071,-0.713 1.721,-0.713c0.65,0 1.261,0.253 1.721,0.713l5.571,5.571c1.117,1.117 1.117,2.935 0,4.052l-1.763,1.763c-0.995,0.995 -5.674,2.485 -8.932,3.302c-1.989,-0.809 -11.211,-4.824 -18.993,-12.606c-7.782,-7.782 -11.797,-17.004 -12.606,-18.993c0.818,-3.258 2.307,-7.937 3.303,-8.932l1.763,-1.763c0.538,-0.542 1.258,-0.84 2.023,-0.84M34.059,27c-1.092,0 -2.183,0.417 -3.016,1.25l-1.763,1.763c-1.789,1.787 -3.78,10.02 -3.78,10.02c0,0 4.013,10.815 13.082,19.884c9.07,9.07 19.885,13.083 19.885,13.083c0,0 8.233,-1.991 10.021,-3.779l1.763,-1.763c1.666,-1.666 1.666,-4.366 0,-6.032l-5.571,-5.571c-0.749,-0.749 -1.73,-1.123 -2.711,-1.123c-0.981,0 -1.962,0.374 -2.711,1.123l-6.337,6.337c0,0 -5.568,-2.551 -9.815,-6.799c-4.247,-4.247 -6.799,-9.815 -6.799,-9.815l6.337,-6.337c1.497,-1.497 1.497,-3.924 0,-5.421l-5.571,-5.571c-0.831,-0.832 -1.922,-1.249 -3.014,-1.249z" fill="#0ea5e9"></path></g><g fill="#0ea5e9"><path d="M41.5,40c-0.128,0 -0.256,-0.049 -0.354,-0.146l-4.875,-4.875c-0.195,-0.195 -0.195,-0.512 0,-0.707c0.195,-0.195 0.512,-0.195 0.707,0l4.875,4.875c0.195,0.195 0.195,0.512 0,0.707c-0.097,0.097 -0.225,0.146 -0.353,0.146z"></path></g><g fill="#0ea5e9"><path d="M34.875,33.375c-0.128,0 -0.256,-0.049 -0.354,-0.146l-1.375,-1.375c-0.195,-0.195 -0.195,-0.512 0,-0.707c0.195,-0.195 0.512,-0.195 0.707,0l1.375,1.375c0.195,0.195 0.195,0.512 0,0.707c-0.097,0.097 -0.225,0.146 -0.353,0.146z"></path></g><g fill="#0ea5e9"><path d="M69.5,68c-0.128,0 -0.256,-0.049 -0.354,-0.146l-4.875,-4.875c-0.195,-0.195 -0.195,-0.512 0,-0.707c0.195,-0.195 0.512,-0.195 0.707,0l4.875,4.875c0.195,0.195 0.195,0.512 0,0.707c-0.097,0.097 -0.225,0.146 -0.353,0.146z"></path></g><g fill="#0ea5e9"><path d="M62.875,61.375c-0.128,0 -0.256,-0.049 -0.354,-0.146l-1.375,-1.375c-0.195,-0.195 -0.195,-0.512 0,-0.707c0.195,-0.195 0.512,-0.195 0.707,0l1.375,1.375c0.195,0.195 0.195,0.512 0,0.707c-0.097,0.097 -0.225,0.146 -0.353,0.146z"></path></g><g fill="#0ea5e9"><path d="M68.863,52.12c-0.021,0 -0.042,-0.001 -0.063,-0.003c-0.385,-0.034 -0.67,-0.374 -0.636,-0.759c0.505,-5.71 -1.528,-11.307 -5.577,-15.356c-4.035,-4.036 -9.612,-6.069 -15.311,-5.582c-0.38,0.03 -0.724,-0.251 -0.757,-0.638c-0.033,-0.385 0.252,-0.724 0.638,-0.757c6.098,-0.529 12.091,1.657 16.42,5.986c4.343,4.344 6.522,10.347 5.981,16.47c-0.031,0.365 -0.336,0.639 -0.695,0.639z"></path><path d="M61.839,51.989c-0.029,0 -0.059,-0.002 -0.089,-0.006c-0.384,-0.048 -0.655,-0.398 -0.606,-0.782c0.48,-3.806 -0.797,-7.541 -3.506,-10.249c-2.729,-2.729 -6.487,-4.007 -10.32,-3.496c-0.388,0.052 -0.735,-0.219 -0.786,-0.603c-0.051,-0.383 0.219,-0.735 0.603,-0.786c4.262,-0.559 8.455,0.854 11.494,3.895c3.017,3.016 4.439,7.177 3.904,11.415c-0.046,0.353 -0.346,0.612 -0.694,0.612zM54.709,52.004c-0.063,0 -0.128,-0.009 -0.192,-0.027c-0.372,-0.106 -0.587,-0.494 -0.48,-0.865c0.53,-1.853 0.014,-3.849 -1.348,-5.21c-1.391,-1.39 -3.425,-1.894 -5.308,-1.319c-0.371,0.118 -0.762,-0.094 -0.874,-0.464c-0.113,-0.369 0.094,-0.761 0.464,-0.874c2.382,-0.729 4.951,-0.09 6.708,1.667c1.721,1.721 2.373,4.244 1.703,6.585c-0.088,0.307 -0.368,0.507 -0.673,0.507z"></path></g></g></g></svg>